<svg width="512" height="512" xmlns="http://www.w3.org/2000/svg" preserveAspectRatio="xMidYMid meet" version="1.0">
 <metadata>Created by potrace 1.11, written by Peter Selinger 2001-2013</metadata>

 <g>
  <title>Layer 1</title>
  <g id="svg_1" fill="#000000" transform="rotate(46 259.964 255.96) translate(0 512) scale(0.1 -0.1)">
   <path id="svg_2" d="m2325,4224c-225,-34 -366,-76 -544,-161c-361,-172 -651,-455 -830,-809c-135,-268 -194,-532 -186,-839c2,-88 6,-173 9,-190c3,-16 8,-43 11,-60c3,-16 7,-41 10,-55c3,-14 7,-36 10,-50c9,-51 54,-188 86,-265c94,-229 217,-413 389,-585c111,-111 139,-136 212,-186c29,-20 60,-42 68,-49c8,-7 34,-22 57,-35c36,-20 43,-21 55,-9c7,8 14,20 15,26c2,7 20,38 40,70c21,32 38,63 38,68c0,6 10,9 22,9c12,-1 21,4 20,10c-1,6 3,10 8,9c6,-1 12,7 12,18c2,18 -1,17 -19,-6c-29,-38 -32,-25 -5,24c13,22 26,38 30,35c3,-3 4,2 2,13c-2,10 -4,20 -4,23c-1,3 -21,16 -46,29c-28,15 -44,29 -41,37c3,8 0,11 -10,7c-18,-7 -46,16 -37,31c3,6 3,8 -2,4c-5,-5 -24,4 -44,19c-55,40 -180,166 -181,181c0,7 -4,10 -10,7c-5,-3 -10,1 -10,9c0,9 -4,16 -9,16c-4,0 -27,26 -49,58c-29,42 -38,62 -30,70c7,7 5,10 -7,9c-10,-1 -20,4 -23,12c-3,9 0,11 9,6c8,-5 11,-4 6,1c-5,5 -14,9 -20,9c-7,0 -13,9 -15,19c-2,11 -10,26 -18,34c-8,7 -12,18 -9,23c4,5 2,9 -2,9c-5,0 -14,9 -21,21c-10,15 -10,24 -2,34c8,10 8,15 -1,21c-8,4 -9,3 -5,-4c4,-7 3,-12 -2,-12c-9,0 -39,69 -47,108c-2,11 -8,29 -13,39c-5,10 -8,28 -7,40c1,12 -2,20 -7,17c-4,-3 -9,4 -9,15c-2,23 -3,29 -12,51c-11,29 -29,161 -23,175c3,8 2,15 -2,15c-4,0 -7,24 -8,54c-1,48 1,54 17,51c10,-2 21,0 24,4c2,5 -5,8 -18,7c-19,-1 -22,4 -22,34c0,27 4,35 17,34c10,-1 15,3 12,8c-3,5 -12,7 -20,4c-17,-7 -18,6 -1,23c6,8 7,11 2,8c-7,-3 -9,9 -7,34c3,25 8,37 16,32c8,-4 8,-3 0,6c-8,9 -9,25 -2,54c5,23 12,51 14,62c2,11 6,30 9,43c3,12 7,32 10,43c11,53 28,95 43,107c10,7 11,12 4,12c-9,0 -9,5 -3,18c5,9 22,45 38,80c19,42 32,61 42,57c11,-4 11,-2 2,9c-7,8 -8,16 -4,18c4,1 18,23 31,48c24,47 50,85 92,130c14,15 30,36 36,46c6,11 16,19 22,19c6,0 14,4 19,9c5,5 3,6 -4,2c-20,-11 -15,1 11,29c14,15 29,24 34,21c6,-3 9,2 8,12c0,10 6,16 16,16c10,-1 15,3 12,8c-7,10 36,45 49,40c5,-1 6,2 3,7c-8,12 21,34 34,26c6,-4 9,-2 8,3c-4,12 52,62 70,62c6,0 12,4 12,8c0,4 15,16 33,27c17,10 34,21 37,25c12,16 101,51 111,44c8,-5 9,-3 4,6c-6,10 -4,12 9,7c10,-4 15,-3 11,3c-6,10 56,40 88,43c9,1 17,5 17,10c0,4 4,6 8,3c4,-2 14,-1 22,4c9,5 19,5 27,-2c11,-8 12,-7 7,7c-5,12 -4,16 4,11c6,-3 13,-2 16,3c4,5 14,8 24,7c9,-2 19,0 22,5c3,4 21,10 40,12c19,3 35,6 35,7c0,3 42,10 87,14c26,2 51,7 56,10c6,3 13,0 15,-6c4,-10 6,-10 6,0c1,16 151,17 151,1c0,-6 6,-4 14,3c17,17 89,12 79,-6c-4,-6 1,-5 10,3c9,7 17,10 17,5c0,-5 19,-9 43,-10c43,-1 91,-7 137,-19c14,-4 32,-8 40,-9c8,-1 22,-5 30,-8c8,-3 51,-17 95,-32c43,-15 82,-30 85,-34c3,-4 12,-8 20,-10c16,-3 121,-53 130,-62c3,-3 17,-11 32,-19c15,-8 36,-22 47,-32c10,-10 21,-15 25,-12c3,3 8,-2 12,-11c3,-9 11,-16 17,-16c33,0 237,-202 320,-317c180,-253 268,-536 262,-847c-1,-83 -5,-162 -9,-176c-3,-13 -8,-41 -11,-61c-3,-20 -10,-50 -15,-68c-5,-17 -9,-35 -9,-39c-1,-4 -13,-43 -27,-87c-35,-107 -110,-257 -180,-357c-78,-112 -258,-290 -366,-362c-49,-32 -88,-62 -88,-67c0,-4 10,-25 21,-46c33,-60 142,-247 146,-253c3,-2 18,3 34,12c16,10 37,15 47,12c14,-5 15,-4 2,5c-8,6 -12,11 -7,12c4,1 10,2 15,3c4,0 18,11 31,23c13,12 27,20 31,18c5,-3 11,2 14,11c4,9 13,14 22,10c8,-3 12,-2 9,3c-7,12 84,83 96,75c5,-3 6,2 3,10c-4,11 0,16 11,16c9,0 13,5 10,10c-6,10 9,15 30,10c5,-1 7,2 3,6c-11,10 12,35 25,27c5,-3 7,-2 4,4c-4,5 5,20 18,31c14,12 25,27 25,34c0,6 3,9 6,6c6,-7 33,18 51,48c6,10 16,18 23,16c6,-1 9,2 5,7c-3,6 2,18 12,28c10,10 30,38 46,61c15,23 32,42 37,42c6,0 9,6 8,13c-2,6 3,11 11,9c8,-2 11,3 8,11c-7,19 21,59 35,51c6,-4 8,1 3,15c-4,15 -2,21 9,21c9,0 13,6 10,14c-3,8 0,17 5,21c6,3 9,11 6,16c-4,5 -2,9 3,9c4,0 15,16 22,35c9,24 19,34 28,30c12,-4 13,-3 2,10c-9,11 -9,15 -1,15c7,0 10,4 7,9c-3,5 3,28 13,52c17,40 22,54 32,84c1,6 10,17 19,25c9,8 10,11 3,6c-10,-6 -10,1 1,32c8,23 20,68 27,101c6,34 15,59 18,56c4,-2 5,10 3,27c-3,17 -1,28 4,25c5,-3 9,11 10,31c1,97 5,133 12,129c4,-3 7,6 7,19c0,13 -3,24 -6,24c-4,0 -3,17 0,38c4,20 6,61 4,90c-1,29 2,50 7,47c5,-3 12,0 16,6c4,8 3,9 -4,5c-16,-10 -34,28 -20,42c9,9 8,12 -2,12c-13,0 -13,2 0,10c12,8 12,10 1,10c-11,0 -11,3 0,17c8,9 9,14 3,10c-12,-7 -29,97 -19,114c4,5 2,9 -2,9c-5,0 -10,14 -11,31c-1,17 -7,39 -12,49c-6,10 -5,21 1,28c5,7 6,10 2,7c-8,-6 -65,168 -67,202c-1,11 -5,19 -10,15c-5,-3 -7,2 -3,11c4,10 2,17 -4,17c-6,0 -8,7 -5,16c3,8 2,12 -4,9c-9,-6 -14,8 -11,28c0,4 -4,7 -10,7c-5,0 -8,4 -5,9c4,5 1,11 -4,13c-6,2 -12,10 -14,18c-1,8 -8,25 -14,38c-7,12 -9,22 -5,22c4,0 -1,6 -12,13c-11,9 -15,19 -10,27c5,9 4,11 -3,6c-7,-4 -12,-2 -12,4c0,6 -11,27 -25,47c-13,20 -21,41 -18,47c3,6 2,8 -2,3c-11,-9 -46,43 -38,57c3,6 3,8 -2,4c-4,-4 -24,14 -44,40c-45,59 -49,64 -89,107c-19,20 -30,40 -26,47c4,6 3,8 -4,5c-11,-8 -112,85 -112,103c0,6 -4,9 -9,5c-5,-3 -17,5 -25,17c-9,12 -16,18 -16,13c0,-6 -3,-6 -8,0c-11,16 -111,89 -182,134c-36,22 -69,44 -75,48c-5,5 -45,24 -87,44c-43,20 -74,40 -70,44c4,5 2,5 -4,2c-11,-6 -54,7 -109,33c-23,11 -128,43 -195,58c-84,20 -104,24 -230,41c-91,13 -339,10 -435,-5z"/>
   <path id="svg_3" d="m2470,3866c0,-2 8,-10 18,-17c15,-13 16,-12 3,4c-13,16 -21,21 -21,13z"/>
   <path id="svg_4" d="m2333,3835c0,-8 4,-12 9,-9c5,3 6,10 3,15c-9,13 -12,11 -12,-6z"/>
   <path id="svg_5" d="m2365,3830c-3,-6 1,-7 9,-4c18,7 21,14 7,14c-6,0 -13,-4 -16,-10z"/>
   <path id="svg_6" d="m1993,3725c0,-8 4,-12 9,-9c5,3 6,10 3,15c-9,13 -12,11 -12,-6z"/>
   <path id="svg_7" d="m1936,3668c3,-5 10,-6 15,-3c13,9 11,12 -6,12c-8,0 -12,-4 -9,-9z"/>
   <path id="svg_8" d="m1710,3565c5,-7 6,-16 2,-21c-4,-5 -3,-5 2,-1c15,12 15,34 0,34c-9,0 -11,-4 -4,-12z"/>
   <path id="svg_9" d="m1650,3525c5,-7 6,-16 2,-21c-4,-5 -3,-5 2,-1c15,12 15,34 0,34c-9,0 -11,-4 -4,-12z"/>
   <path id="svg_10" d="m2425,3518c-152,-17 -331,-84 -468,-175c-88,-57 -238,-206 -292,-288c-86,-132 -146,-280 -170,-423c-16,-99 -14,-299 5,-377c6,-27 14,-61 16,-74c10,-48 65,-178 108,-254c48,-84 140,-202 181,-233c14,-10 25,-25 25,-32c0,-7 4,-11 8,-8c4,2 23,-9 42,-26c31,-27 94,-72 127,-91c7,-5 24,13 44,47c18,30 36,53 40,50c4,-2 6,4 5,14c0,9 4,16 11,15c7,-2 10,3 7,11c-3,7 2,21 11,30c9,9 13,16 9,16c-3,0 -2,6 3,13c22,28 75,130 65,123c-13,-8 -100,48 -109,70c-3,8 -9,14 -14,14c-17,0 -99,95 -94,108c3,8 0,10 -7,6c-8,-5 -9,-2 -5,10c4,10 3,15 -3,11c-12,-7 -44,41 -35,55c4,6 1,9 -5,8c-12,-3 -51,87 -42,96c3,4 1,6 -5,6c-18,0 -37,121 -36,225c2,84 7,140 13,140c2,0 5,16 14,59c3,16 13,38 23,49c10,11 13,17 6,14c-8,-5 -8,-1 0,18c8,16 17,23 27,19c11,-4 12,-2 3,7c-9,9 -6,20 10,49c34,58 79,110 90,103c6,-3 8,-2 4,3c-3,5 1,18 9,29c8,10 14,16 14,12c0,-4 13,7 29,24c17,17 35,28 41,24c6,-3 9,-1 8,7c-2,7 5,12 14,12c10,-1 16,3 15,9c-2,11 124,77 136,70c4,-2 7,1 7,7c0,7 6,10 14,7c8,-3 16,-2 18,3c2,4 19,11 38,15c19,3 51,9 70,12c46,9 186,9 230,0c19,-4 50,-10 67,-13c19,-4 30,-11 26,-17c-3,-6 -1,-7 6,-3c16,10 53,-3 45,-16c-4,-7 -2,-8 5,-4c16,11 83,-22 75,-36c-4,-6 -3,-8 4,-5c14,9 43,-3 36,-14c-3,-5 1,-7 8,-4c7,3 27,-8 44,-23c17,-15 47,-41 66,-58c53,-47 114,-133 152,-215c96,-207 83,-452 -34,-649c-43,-74 -145,-181 -213,-227c-53,-35 -60,-12 57,-210l78,-132l24,15c13,9 24,13 24,9c0,-5 8,2 19,13c10,12 21,19 25,15c3,-3 6,-1 6,6c0,8 6,11 16,7c8,-3 12,-2 9,4c-3,6 -1,10 6,10c7,0 9,3 6,7c-4,3 9,17 28,30c19,13 35,29 35,35c0,6 10,3 22,-8c16,-14 19,-14 10,-2c-11,14 -9,21 18,50c18,18 28,26 24,18c-4,-9 -3,-12 2,-7c5,5 9,16 9,25c0,9 11,22 25,29c14,7 19,13 12,13c-10,0 -9,4 2,16c9,8 21,24 27,35c9,17 13,18 27,7c15,-12 16,-11 4,4c-12,15 -11,22 7,47c12,16 21,32 21,36c0,4 9,20 21,36c11,16 17,29 13,29c-4,0 1,7 12,16c10,8 12,12 4,8c-12,-6 -13,-5 -4,7c6,8 17,35 25,62c7,26 16,47 20,47c4,0 6,6 6,13c-3,34 28,165 37,160c8,-5 8,-3 0,8c-9,13 -10,25 -4,47c6,21 4,172 -3,172c-4,0 -3,10 4,21c6,12 7,19 1,15c-5,-3 -12,15 -16,42c-3,26 -9,61 -12,77c-4,17 -7,36 -7,43c0,6 -4,12 -9,12c-5,0 -7,4 -3,9c3,5 1,12 -4,15c-5,4 -12,24 -16,46c-4,22 -10,40 -14,40c-5,0 -15,18 -23,39c-15,36 -14,39 1,35c10,-4 9,-1 -4,7c-29,18 -45,42 -39,59c3,8 2,11 -2,7c-4,-4 -16,5 -25,20c-14,21 -15,29 -6,36c8,6 6,7 -6,3c-11,-4 -20,1 -24,12c-4,9 -13,22 -21,28c-8,6 -12,16 -8,23c4,6 4,10 -1,9c-5,-2 -38,25 -73,59c-36,34 -89,80 -117,101c-29,21 -49,43 -45,47c4,5 2,5 -5,2c-6,-4 -19,0 -27,9c-9,8 -16,13 -16,10c0,-4 -17,4 -37,17c-162,99 -432,151 -658,125z"/>
   <path id="svg_11" d="m1435,3311c-3,-5 -2,-12 3,-15c5,-3 9,1 9,9c0,17 -3,19 -12,6z"/>
   <path id="svg_12" d="m1461,3286c-9,-11 -9,-16 1,-22c7,-4 10,-4 6,1c-4,4 -3,14 3,22c6,7 9,13 6,13c-2,0 -10,-6 -16,-14z"/>
   <path id="svg_13" d="m1389,3227c6,-8 7,-18 3,-22c-4,-5 -1,-5 6,-1c10,6 10,11 1,22c-6,8 -14,14 -16,14c-3,0 0,-6 6,-13z"/>
   <path id="svg_14" d="m1350,3210c0,-5 5,-10 11,-10c5,0 7,5 4,10c-3,6 -8,10 -11,10c-2,0 -4,-4 -4,-10z"/>
   <path id="svg_15" d="m2520,3150c-9,-6 -10,-10 -3,-10c6,0 15,5 18,10c8,12 4,12 -15,0z"/>
   <path id="svg_16" d="m1339,3123c-13,-16 -12,-17 4,-4c16,13 21,21 13,21c-2,0 -10,-8 -17,-17z"/>
   <path id="svg_17" d="m2595,3130c-3,-5 -1,-10 4,-10c6,0 11,5 11,10c0,6 -2,10 -4,10c-3,0 -8,-4 -11,-10z"/>
   <path id="svg_18" d="m1336,3085c-9,-26 -7,-32 5,-12c6,10 9,21 6,23c-2,3 -7,-2 -11,-11z"/>
   <path id="svg_19" d="m2330,3089c0,-5 5,-7 10,-4c6,3 10,8 10,11c0,2 -4,4 -10,4c-5,0 -10,-5 -10,-11z"/>
   <path id="svg_20" d="m2239,3078c-5,-18 -6,-38 -1,-34c7,8 12,36 6,36c-2,0 -4,-1 -5,-2z"/>
   <path id="svg_21" d="m1274,3059c-3,-6 -2,-15 3,-20c5,-5 9,-1 9,11c0,23 -2,24 -12,9z"/>
   <path id="svg_22" d="m2185,3030c-3,-6 1,-7 9,-4c18,7 21,14 7,14c-6,0 -13,-4 -16,-10z"/>
   <path id="svg_23" d="m2255,3029c-3,-4 2,-6 10,-5c21,3 28,13 10,13c-9,0 -18,-4 -20,-8z"/>
   <path id="svg_24" d="m2153,3005c0,-8 4,-12 9,-9c5,3 6,10 3,15c-9,13 -12,11 -12,-6z"/>
   <path id="svg_25" d="m2116,2992c-3,-5 1,-9 9,-9c8,0 12,4 9,9c-3,4 -7,8 -9,8c-2,0 -6,-4 -9,-8z"/>
   <path id="svg_26" d="m2086,2972c-3,-5 1,-9 9,-9c8,0 12,4 9,9c-3,4 -7,8 -9,8c-2,0 -6,-4 -9,-8z"/>
   <path id="svg_27" d="m1216,2932c-3,-5 1,-9 9,-9c8,0 12,4 9,9c-3,4 -7,8 -9,8c-2,0 -6,-4 -9,-8z"/>
   <path id="svg_28" d="m2070,2929c0,-5 5,-7 10,-4c6,3 10,8 10,11c0,2 -4,4 -10,4c-5,0 -10,-5 -10,-11z"/>
   <path id="svg_29" d="m1210,2906c0,-2 8,-10 18,-17c15,-13 16,-12 3,4c-13,16 -21,21 -21,13z"/>
   <path id="svg_30" d="m1195,2870c-3,-5 -1,-10 4,-10c6,0 11,5 11,10c0,6 -2,10 -4,10c-3,0 -8,-4 -11,-10z"/>
   <path id="svg_31" d="m1256,2868c3,-5 10,-6 15,-3c13,9 11,12 -6,12c-8,0 -12,-4 -9,-9z"/>
   <path id="svg_32" d="m1993,2845c0,-8 4,-12 9,-9c4,3 8,9 8,15c0,5 -4,9 -8,9c-5,0 -9,-7 -9,-15z"/>
   <path id="svg_33" d="m2030,2849c0,-5 5,-7 10,-4c6,3 10,8 10,11c0,2 -4,4 -10,4c-5,0 -10,-5 -10,-11z"/>
   <path id="svg_34" d="m1190,2835c0,-7 30,-13 34,-7c3,4 -4,9 -15,9c-10,1 -19,0 -19,-2z"/>
   <path id="svg_35" d="m1193,2813c4,-3 1,-13 -6,-22c-11,-14 -10,-14 5,-2c16,12 16,31 1,31c-4,0 -3,-3 0,-7z"/>
   <path id="svg_36" d="m2493,2805c-122,-27 -209,-94 -260,-202c-64,-138 -24,-318 92,-415c39,-33 101,-68 120,-68c8,0 15,-4 15,-8c0,-13 143,-14 196,-1c27,7 68,25 91,41c23,15 47,28 53,28c6,0 9,3 7,8c-3,4 1,13 9,20c8,7 14,9 14,5c1,-4 10,9 21,30c11,20 24,38 29,38c6,1 14,2 19,3c5,0 13,4 17,8c3,4 -3,6 -15,3c-23,-4 -29,10 -7,18c7,3 14,16 14,29c2,41 9,63 20,63c6,0 14,4 19,8c4,5 1,7 -7,5c-12,-2 -15,7 -15,45c0,26 -4,47 -9,47c-5,0 -2,8 5,17c10,11 10,14 2,9c-8,-4 -13,-2 -13,8c0,8 -5,27 -11,43c-6,15 -11,30 -12,33c-2,7 -24,34 -64,80c-40,45 -132,96 -193,105c-25,3 -52,8 -60,10c-8,2 -43,-3 -77,-10z"/>
   <path id="svg_37" d="m1953,2785c0,-8 4,-12 9,-9c5,3 6,10 3,15c-9,13 -12,11 -12,-6z"/>
   <path id="svg_38" d="m1987,2789c7,-7 15,-10 18,-7c3,3 -2,9 -12,12c-14,6 -15,5 -6,-5z"/>
   <path id="svg_39" d="m4375,2771c-3,-5 -2,-12 3,-15c5,-3 9,1 9,9c0,17 -3,19 -12,6z"/>
   <path id="svg_40" d="m3630,2749c0,-5 5,-7 10,-4c6,3 10,8 10,11c0,2 -4,4 -10,4c-5,0 -10,-5 -10,-11z"/>
   <path id="svg_41" d="m1929,2733c-13,-16 -12,-17 4,-4c16,13 21,21 13,21c-2,0 -10,-8 -17,-17z"/>
   <path id="svg_42" d="m1987,2729c7,-7 15,-10 18,-7c3,3 -2,9 -12,12c-14,6 -15,5 -6,-5z"/>
   <path id="svg_43" d="m1949,2693c-13,-16 -12,-17 4,-4c16,13 21,21 13,21c-2,0 -10,-8 -17,-17z"/>
   <path id="svg_44" d="m1910,2691c0,-6 4,-12 8,-15c5,-3 9,1 9,9c0,8 -4,15 -9,15c-4,0 -8,-4 -8,-9z"/>
   <path id="svg_45" d="m1155,2671c-3,-5 -2,-12 3,-15c5,-3 9,1 9,9c0,17 -3,19 -12,6z"/>
   <path id="svg_46" d="m1894,2650c0,-13 4,-16 10,-10c7,7 7,13 0,20c-6,6 -10,3 -10,-10z"/>
   <path id="svg_47" d="m3667,2649c7,-7 15,-10 18,-7c3,3 -2,9 -12,12c-14,6 -15,5 -6,-5z"/>
   <path id="svg_48" d="m1879,2603c-13,-16 -12,-17 4,-4c16,13 21,21 13,21c-2,0 -10,-8 -17,-17z"/>
   <path id="svg_49" d="m4416,2552c-3,-5 1,-9 9,-9c8,0 12,4 9,9c-3,4 -7,8 -9,8c-2,0 -6,-4 -9,-8z"/>
   <path id="svg_50" d="m1894,2486c1,-8 5,-18 8,-22c4,-3 5,1 4,10c-1,8 -5,18 -8,22c-4,3 -5,-1 -4,-10z"/>
   <path id="svg_51" d="m2936,2457c3,-10 9,-15 12,-12c3,3 0,11 -7,18c-10,9 -11,8 -5,-6z"/>
   <path id="svg_52" d="m4415,2451c-3,-5 -2,-12 3,-15c5,-3 9,1 9,9c0,17 -3,19 -12,6z"/>
   <path id="svg_53" d="m1890,2431c0,-6 4,-13 10,-16c6,-3 7,1 4,9c-7,18 -14,21 -14,7z"/>
   <path id="svg_54" d="m1186,2368c3,-5 10,-6 15,-3c13,9 11,12 -6,12c-8,0 -12,-4 -9,-9z"/>
   <path id="svg_55" d="m1865,2370c-3,-6 1,-7 9,-4c18,7 21,14 7,14c-6,0 -13,-4 -16,-10z"/>
   <path id="svg_56" d="m2926,2268c3,-5 10,-6 15,-3c13,9 11,12 -6,12c-8,0 -12,-4 -9,-9z"/>
   <path id="svg_57" d="m1153,2245c0,-8 4,-12 9,-9c5,3 6,10 3,15c-9,13 -12,11 -12,-6z"/>
   <path id="svg_58" d="m3633,2225c0,-8 4,-12 9,-9c5,3 6,10 3,15c-9,13 -12,11 -12,-6z"/>
   <path id="svg_59" d="m2873,2185c0,-8 4,-12 9,-9c5,3 6,10 3,15c-9,13 -12,11 -12,-6z"/>
   <path id="svg_60" d="m1186,2168c3,-5 10,-6 15,-3c13,9 11,12 -6,12c-8,0 -12,-4 -9,-9z"/>
   <path id="svg_61" d="m3653,2159c-2,-23 3,-25 10,-4c4,8 3,16 -1,19c-4,3 -9,-4 -9,-15z"/>
   <path id="svg_62" d="m4385,2130c-3,-6 1,-7 9,-4c18,7 21,14 7,14c-6,0 -13,-4 -16,-10z"/>
   <path id="svg_63" d="m2770,2109c0,-5 5,-7 10,-4c6,3 10,8 10,11c0,2 -4,4 -10,4c-5,0 -10,-5 -10,-11z"/>
   <path id="svg_64" d="m1230,1949c0,-5 5,-7 10,-4c6,3 10,8 10,11c0,2 -4,4 -10,4c-5,0 -10,-5 -10,-11z"/>
   <path id="svg_65" d="m3519,1843c-13,-16 -12,-17 4,-4c16,13 21,21 13,21c-2,0 -10,-8 -17,-17z"/>
   <path id="svg_66" d="m4260,1856c0,-2 8,-10 18,-17c15,-13 16,-12 3,4c-13,16 -21,21 -21,13z"/>
   <path id="svg_67" d="m4251,1814c0,-11 3,-14 6,-6c3,7 2,16 -1,19c-3,4 -6,-2 -5,-13z"/>
   <path id="svg_68" d="m2210,1789c0,-5 5,-7 10,-4c6,3 10,8 10,11c0,2 -4,4 -10,4c-5,0 -10,-5 -10,-11z"/>
   <path id="svg_69" d="m3467,1789c7,-7 15,-10 18,-7c3,3 -2,9 -12,12c-14,6 -15,5 -6,-5z"/>
   <path id="svg_70" d="m3430,1749c0,-5 5,-7 10,-4c6,3 10,8 10,11c0,2 -4,4 -10,4c-5,0 -10,-5 -10,-11z"/>
   <path id="svg_71" d="m4230,1756c0,-2 7,-7 16,-10c8,-3 12,-2 9,4c-6,10 -25,14 -25,6z"/>
   <path id="svg_72" d="m3396,1723c-6,-14 -5,-15 5,-6c7,7 10,15 7,18c-3,3 -9,-2 -12,-12z"/>
   <path id="svg_73" d="m2136,1689c4,-8 30,-6 38,2c3,3 -5,5 -19,5c-13,0 -22,-3 -19,-7z"/>
   <path id="svg_74" d="m4255,1690c-3,-5 -1,-10 4,-10c6,0 11,5 11,10c0,6 -2,10 -4,10c-3,0 -8,-4 -11,-10z"/>
   <path id="svg_75" d="m3354,1672c4,-3 14,-7 22,-8c9,-1 13,0 10,4c-4,3 -14,7 -22,8c-9,1 -13,0 -10,-4z"/>
   <path id="svg_76" d="m3296,1648c3,-5 10,-6 15,-3c13,9 11,12 -6,12c-8,0 -12,-4 -9,-9z"/>
   <path id="svg_77" d="m4236,1648c3,-5 10,-6 15,-3c13,9 11,12 -6,12c-8,0 -12,-4 -9,-9z"/>
   <path id="svg_78" d="m3294,1605c0,-13 3,-22 7,-19c8,4 6,30 -2,38c-3,3 -5,-5 -5,-19z"/>
   <path id="svg_79" d="m1435,1610c-3,-5 -1,-10 4,-10c6,0 11,5 11,10c0,6 -2,10 -4,10c-3,0 -8,-4 -11,-10z"/>
   <path id="svg_80" d="m2076,1611c-3,-5 2,-15 12,-22c15,-12 16,-12 5,2c-7,9 -10,19 -6,22c3,4 4,7 0,7c-3,0 -8,-4 -11,-9z"/>
   <path id="svg_81" d="m3253,1605c0,-8 4,-12 9,-9c5,3 6,10 3,15c-9,13 -12,11 -12,-6z"/>
   <path id="svg_82" d="m2115,1590c3,-5 8,-10 11,-10c2,0 4,5 4,10c0,6 -5,10 -11,10c-5,0 -7,-4 -4,-10z"/>
   <path id="svg_83" d="m3199,1563c-13,-16 -12,-17 4,-4c9,7 17,15 17,17c0,8 -8,3 -21,-13z"/>
   <path id="svg_84" d="m3240,1530c-9,-6 -10,-10 -3,-10c6,0 15,5 18,10c8,12 4,12 -15,0z"/>
   <path id="svg_85" d="m4105,1489c-3,-4 2,-6 10,-5c21,3 28,13 10,13c-9,0 -18,-4 -20,-8z"/>
   <path id="svg_86" d="m4033,1365c0,-8 4,-12 9,-9c5,3 6,10 3,15c-9,13 -12,11 -12,-6z"/>
   <path id="svg_87" d="m4006,1308c3,-5 10,-6 15,-3c13,9 11,12 -6,12c-8,0 -12,-4 -9,-9z"/>
   <path id="svg_88" d="m3940,1295c0,-2 6,-8 13,-14c10,-8 14,-7 14,2c0,8 -6,14 -14,14c-7,0 -13,-1 -13,-2z"/>
   <path id="svg_89" d="m3827,1149c7,-9 10,-19 6,-22c-3,-4 -1,-7 5,-7c17,0 15,16 -5,31c-16,12 -17,12 -6,-2z"/>
   <path id="svg_90" d="m1810,1069c0,-5 5,-7 10,-4c6,3 10,8 10,11c0,2 -4,4 -10,4c-5,0 -10,-5 -10,-11z"/>
   <path id="svg_91" d="m3719,1063c-13,-16 -12,-17 4,-4c16,13 21,21 13,21c-2,0 -10,-8 -17,-17z"/>
   <path id="svg_92" d="m1774,1059c-3,-6 -2,-15 3,-20c5,-5 9,-1 9,11c0,23 -2,24 -12,9z"/>
   <path id="svg_93" d="m3679,1038c-5,-16 -4,-46 2,-42c4,2 7,13 6,24c-1,17 -5,26 -8,18z"/>
   <path id="svg_94" d="m1710,975c0,-7 30,-13 34,-7c3,4 -4,9 -15,9c-10,1 -19,0 -19,-2z"/>
   <path id="svg_95" d="m3610,949c0,-5 5,-7 10,-4c6,3 10,8 10,11c0,2 -4,4 -10,4c-5,0 -10,-5 -10,-11z"/>
   <path id="svg_96" d="m3570,889c0,-5 5,-7 10,-4c6,3 10,8 10,11c0,2 -4,4 -10,4c-5,0 -10,-5 -10,-11z"/>
  </g>
 </g>
</svg>